<svg width="30" height="30" viewBox="0 0 30 30" fill="none" xmlns="http://www.w3.org/2000/svg">
<path d="M15.0586 0C6.81973 0 0 6.70254 0 14.9414C0 23.1803 6.81973 30 15.0586 30C23.2975 30 30 23.1803 30 14.9414C30 6.70254 23.2975 0 15.0586 0ZM22.9688 16.6992H16.8164V22.9688C16.8164 23.9379 16.0271 24.7266 15.0586 24.7266C14.0895 24.7266 13.3008 23.9379 13.3008 22.9688V16.6992H7.03125C6.06211 16.6992 5.27344 15.9105 5.27344 14.9414C5.27344 13.9723 6.06211 13.1836 7.03125 13.1836H13.3008V7.03125C13.3008 6.06211 14.0895 5.27344 15.0586 5.27344C16.0271 5.27344 16.8164 6.06211 16.8164 7.03125V13.1836H22.9688C23.9373 13.1836 24.7266 13.9723 24.7266 14.9414C24.7266 15.9105 23.9373 16.6992 22.9688 16.6992Z" fill="#0075FF"/>
</svg>
